<svg width="737" height="993" viewBox="0 0 737 993" fill="none" xmlns="http://www.w3.org/2000/svg" aria-hidden="true">
                        <path d="M245.967 283.901L0.741594 425.482L0.741607 142.321L245.967 283.901Z" stroke="#C93D94" stroke-width="1" stroke-linejoin="round"></path>
                        <path d="M245.967 283.901L0.741594 425.482L0.741607 142.321L245.967 283.901Z" className="animated-path">
                        </path><path d="M736.418 283.901L491.193 425.482L491.193 142.321L736.418 283.901Z" stroke="#C93D94" stroke-width="1" stroke-linejoin="round"></path>
                        <path d="M736.418 283.901L491.193 425.482L491.193 142.321L736.418 283.901Z" className="animated-path"></path>
                        <path d="M491.191 708.819L245.966 850.4L245.966 567.239L491.191 708.819Z" stroke="#C93D94" stroke-width="1" stroke-linejoin="round"></path>
                        <path d="M491.191 708.819L245.966 850.4L245.966 567.239L491.191 708.819Z" className="animated-path">
                        </path>
                        <path d="M245.967 283.901L491.192 425.482L491.192 142.321L245.967 283.901Z" stroke="#C93D94" stroke-width="1" stroke-linejoin="round"></path>
                        <path d="M245.967 283.901L491.192 425.482L491.192 142.321L245.967 283.901Z" className="animated-path"></path>
                        <path d="M491.191 708.819L736.417 850.4L736.417 567.239L491.191 708.819Z" stroke="#C93D94" stroke-width="1" stroke-linejoin="round"></path>

                        <path d="M491.191 708.819L736.417 850.4L736.417 567.239L491.191 708.819Z" className="animated-path"></path>
                        <path d="M491.191 142.325L245.966 0.744324L245.966 283.906L491.191 142.325Z" stroke="#C93D94" stroke-width="1" stroke-linejoin="round"></path>
                        <path d="M491.191 142.325L245.966 0.744324L245.966 283.906L491.191 142.325Z" className="animated-path"></path>
                        <path d="M736.418 567.239L491.193 425.658V708.82L736.418 567.239Z" stroke="#C93D94" stroke-width="1" stroke-linejoin="round"></path>
                        <path d="M736.418 567.239L491.193 425.658V708.82L736.418 567.239Z" className="animated-path"></path>
                        <path d="M491.191 425.485L245.966 283.904L245.966 567.066L491.191 425.485Z" stroke="#C93D94" stroke-width="1" stroke-linejoin="round"></path>
                        <path d="M491.191 425.485L245.966 283.904L245.966 567.066L491.191 425.485Z" className="animated-path"></path>
                        <path d="M736.418 850.403L491.193 708.822V991.984L736.418 850.403Z" stroke="#C93D94" stroke-width="1" stroke-linejoin="round"></path>
                        <path d="M736.418 850.403L491.193 708.822V991.984L736.418 850.403Z" className="animated-path"></path>
                        <path d="M245.969 283.903L245.969 0.741157L0.744314 142.322L245.969 283.903Z" stroke="#C93D94" stroke-width="1" stroke-linejoin="round"></path>
                        <path d="M245.969 283.903L245.969 0.741157L0.744314 142.322L245.969 283.903Z" className="animated-path"></path>
                        <path d="M491.194 708.821L491.194 425.659L245.969 567.24L491.194 708.821Z" stroke="#C93D94" stroke-width="1" stroke-linejoin="round"></path>
                        <path d="M491.194 708.821L491.194 425.659L245.969 567.24L491.194 708.821Z" className="animated-path"></path>
                        <path d="M245.969 567.067L245.969 283.905L0.744314 425.486L245.969 567.067Z" stroke="#C93D94" stroke-width="1" stroke-linejoin="round"></path>
                        <path d="M245.969 567.067L245.969 283.905L0.744314 425.486L245.969 567.067Z" className="animated-path"></path>
                        <path d="M736.421 567.067L736.421 283.905L491.195 425.486L736.421 567.067Z" stroke="#C93D94" stroke-width="1" stroke-linejoin="round"></path>
                        <path d="M736.421 567.067L736.421 283.905L491.195 425.486L736.421 567.067Z" className="animated-path"></path>
                        <path d="M491.194 991.981L491.194 708.819L245.969 850.4L491.194 991.981Z" stroke="#C93D94" stroke-width="1" stroke-linejoin="round"></path>
                        <path d="M491.194 991.981L491.194 708.819L245.969 850.4L491.194 991.981Z" className="animated-path">

                        </path>
                    </svg>