<svg viewBox="0 0 148 172" xmlns="http://www.w3.org/2000/svg" xmlns:v="https://vecta.io/nano"><path d="M.038 43.049L73.947.379l73.909 42.67-25.371 14.654-48.538-28.025-48.534 28.025L.037 43.049zm73.908 98.711l-48.534-28.021L50.788 99.09l23.158 13.371L97.109 99.09l25.375 14.649-48.538 28.021z" fill="#a7337b"></path><path d="M50.788 99.086l-.042-26.851 23.2-13.263V29.669L25.412 57.694v56.041l25.376-14.649zm97.072 29.294V43.036L122.489 57.69v56.041l-48.538 28.021v29.303l73.909-42.675z" fill="#db7eb8"></path><path d="M73.947 29.668v29.303L97.11 72.342v26.743l25.376 14.649V57.693L73.948 29.668zM.038 43.04v85.344l73.909 42.675v-29.303l-48.534-28.021V57.694L.037 43.04z" fill="#edbedb"></path></svg>