<svg width="583" height="371" viewBox="0 0 583 371" fill="none" xmlns="http://www.w3.org/2000/svg">
<g filter="url(#filter0_d_light)">
<path d="M566.642 189.013L566.643 169.557L293.323 328.369C292.758 328.697 292.06 328.696 291.496 328.366L18.7717 168.692C17.563 167.984 16.0426 168.856 16.0426 170.256V189.064C16.0426 192.65 17.9623 195.961 21.0739 197.743L282.43 347.381C288.608 350.918 296.201 350.904 302.366 347.345L561.642 197.673C564.736 195.887 566.642 192.586 566.642 189.013Z" fill="url(#paint0_linear_light)"/>
<rect width="323.738" height="323.738" rx="10" transform="matrix(-0.866044 0.499967 0.866044 0.499967 291.371 8)" fill="url(#paint1_linear_light)" stroke="url(#paint_stroke_light)" stroke-width="1.5"/>
</g>
<defs>
<filter id="filter0_d_light" x="0.599104" y="0.633778" width="581.515" height="369.981" filterUnits="userSpaceOnUse" color-interpolation-filters="sRGB">
<feFlood flood-opacity="0" result="BackgroundImageFix"/>
<feColorMatrix in="SourceAlpha" type="matrix" values="0 0 0 0 0 0 0 0 0 0 0 0 0 0 0 0 0 0 127 0" result="hardAlpha"/>
<feOffset dy="10"/>
<feGaussianBlur stdDeviation="14"/>
<feComposite in2="hardAlpha" operator="out"/>
<feColorMatrix type="matrix" values="0 0 0 0 0.55 0 0 0 0 0.22 0 0 0 0 0.82 0 0 0 0.14 0"/>
<feBlend mode="normal" in2="BackgroundImageFix" result="effect1_dropShadow"/>
<feBlend mode="normal" in="SourceGraphic" in2="effect1_dropShadow" result="shape"/>
</filter>
<linearGradient id="paint0_linear_light" x1="566.742" y1="195.118" x2="15.7422" y2="193.4" gradientUnits="userSpaceOnUse">
<stop offset="0%" stop-color="#ede4ff"/>
<stop offset="30%" stop-color="#fed7aa"/>
<stop offset="60%" stop-color="#f5d0fe"/>
<stop offset="85%" stop-color="#ffedd5"/>
<stop offset="100%" stop-color="#e0d4fc"/>
</linearGradient>
<linearGradient id="paint1_linear_light" x1="0" y1="0" x2="323.738" y2="323.738" gradientUnits="userSpaceOnUse">
<stop offset="0%" stop-color="#ffffff"/>
<stop offset="35%" stop-color="#faf5ff"/>
<stop offset="70%" stop-color="#fdf2f8"/>
<stop offset="100%" stop-color="#fff7ed"/>
</linearGradient>
<linearGradient id="paint_stroke_light" x1="0" y1="0" x2="323.738" y2="323.738" gradientUnits="userSpaceOnUse">
<stop offset="0%" stop-color="#ffffff"/>
<stop offset="35%" stop-color="#d8b4fe"/>
<stop offset="70%" stop-color="#fdba74"/>
<stop offset="100%" stop-color="#c084fc"/>
</linearGradient>
</defs>
</svg>
